<svg id="Layer_1" data-name="Layer 1" xmlns="http://www.w3.org/2000/svg" viewBox="0 0 1080 1080"><defs><style>.cls-1{fill:none;}.cls-2{fill:#fff;stroke:#000;stroke-miterlimit:10;}.cls-3{fill:#00f4b2;}</style></defs><title>icon-lightning</title><rect id="background" class="cls-1" width="1080" height="1080"/><path class="cls-2" d="M539.5.22" transform="translate(0 0)"/><path class="cls-3" d="M224.36,593.49,671.7,3.5s42.93-18,45.7,27.7l-108,393.32,235.44,97s23.54,18,8.31,38.78L462.57,1076.83s-48.47,18-47.08-31.85l18-62.32,108-317.16L247.91,635s-36-4.15-23.55-41.54" transform="translate(0 0)"/><path class="cls-3" d="M499.26,789.85" transform="translate(0 0)"/><rect class="cls-3" x="235.25" y="958.48" width="359.71" height="14.91" rx="3.53"/><rect class="cls-3" y="494.36" width="380.07" height="14.9" rx="3.53"/><rect class="cls-3" x="418.44" y="102.71" width="259.79" height="14.83" rx="3.52"/><rect class="cls-3" x="145.8" y="728.48" width="179.85" height="14.27" rx="3.38"/><rect class="cls-3" x="415.58" y="860.38" width="179.85" height="14.27" rx="3.38"/><rect class="cls-3" x="829.04" y="735.12" width="250.96" height="14.98" rx="3.55"/><rect class="cls-3" x="334.92" y="291.49" width="364.7" height="14.92" rx="3.54"/><rect class="cls-3" x="774.81" y="291.45" width="58.95" height="14.99" rx="3.55"/><rect class="cls-3" x="677.89" y="867.98" width="58.95" height="14.99" rx="3.55"/></svg>