<svg id="Layer_1" data-name="Layer 1" xmlns="http://www.w3.org/2000/svg" viewBox="0 0 72 72"><defs><style>.cls-1,.cls-2{fill:none;}.cls-2{stroke:#fff;stroke-miterlimit:10;stroke-width:6px;}.cls-3{fill:#fff;}</style></defs><title>search-white</title><rect id="background" class="cls-1" width="72" height="72"/><ellipse class="cls-2" cx="27.1" cy="28.4" rx="22.62" ry="22.76"/><path class="cls-3" d="M69.77,71.25h0a2.52,2.52,0,0,1-3.59,0L41.42,46.34a2.58,2.58,0,0,1,0-3.62h0a2.53,2.53,0,0,1,3.6,0L69.77,67.63A2.56,2.56,0,0,1,69.77,71.25Z"/><path class="cls-3" d="M29,3.18S47.17,3.6,49.72,0c0,0-4.16,6.34-2.56,13.08C47.16,13.08,40.75,3.94,29,3.18Z"/></svg>